<?xml version="1.0" standalone="no"?>
<!DOCTYPE svg PUBLIC "-//W3C//DTD SVG 20010904//EN"
 "http://www.w3.org/TR/2001/REC-SVG-20010904/DTD/svg10.dtd">
<svg version="1.0" xmlns="http://www.w3.org/2000/svg"
 width="787.000000pt" height="787.000000pt" viewBox="0 0 787.000000 787.000000"
 preserveAspectRatio="xMidYMid meet">
<metadata>
Created by potrace 1.14, written by Peter Selinger 2001-2017
</metadata>
<g transform="translate(0.000000,787.000000) scale(0.100000,-0.100000)"
fill="#000000" stroke="none">
<path d="M1139 7866 c-2 -2 -24 -6 -49 -9 -177 -21 -395 -108 -560 -225 -95
-67 -238 -214 -306 -317 -94 -141 -170 -314 -190 -435 -3 -14 -7 -31 -9 -38
-17 -48 -20 -439 -20 -2922 1 -2586 2 -2791 18 -2870 106 -529 496 -917 1032
-1026 55 -11 5648 -15 5705 -4 25 4 61 11 80 14 309 49 639 273 820 555 59 93
106 191 139 289 28 87 38 130 57 252 10 60 11 5481 2 5590 -9 103 -20 156 -60
280 -142 445 -532 777 -1003 854 -78 13 -465 15 -2871 15 -1529 1 -2783 -1
-2785 -3z"/>
</g>
</svg>
